<svg xmlns="http://www.w3.org/2000/svg" width="111" height="157" viewBox="0 0 111 157" shape-rendering="geometricPrecision" text-rendering="geometricPrecision" image-rendering="optimizeQuality" fill-rule="evenodd" clip-rule="evenodd"><path d="M23 26h-8c-3 0-6-2-6-5h18c-1 1-3 4-4 5zm24 64c1 1 2 2 4 3v6c-19 17 24 24 22 41 0 5-6 10-11 12 4-2 6-6 6-10 1-9-20-18-19-18-15-10-16-22-2-34zm5 3c2 2 5 4 7 6v22l-7-5V93zm54-82s-18 3-20 3c-4 1-6 7-2 10 5 5 4 10 0 14 0 1-7-8-9-9 0 0 1-1 0-2-4-6-2-11 2-14 5-5 19-9 26-11 3-1 5-2 7-2 2 5 1 9-4 11zm-77 9c0-3-2-5-4-6-7-1-30-1-24-14 0 0 6 2 14 4 5 2 10 3 15 5 6 2 8 7 8 12 0 4-3 6-2 8-3 3-6 6-9 10v-1c-9-9 2-14 2-18zm70 0H84v-2c1-1 3-1 7-2 5-1 12-2 15-3-1 4-3 6-7 7zM83 54c10 7 7 18 0 25-5 3-12 7-18 10-2-1-3-2-4-3v-6c3-1 6-3 9-5 17-11-1-17 0-9-14-3 0-22 13-12zm-33-8h11l-1 39c-3-2-6-3-9-5 0-12 0-23-1-34zM29 79c-19-17 6-36 16-24 5 5-1 10-3 10 1-8-19-2-1 10 8 4 16 9 23 15 4 3 8 7 9 12 2 10-4 16-11 21-1-1-2-1-2-1v-7c18-17-22-28-31-36zm30 52c-1 8-1 15-1 23 0 2-1 3-3 3-1 0-2-1-2-2 0-9-1-18-1-26-4 3-9 7-9 12 1 7 6 10 6 10-4-2-11-5-11-12 0-5 3-10 10-15 3 2 7 4 11 7zm30-88c0 1 0 2-1 2H23c-2-1-2-2-2-2 9 0 18-23 34-24 12 0 20 11 27 19 2 3 4 5 7 5zm13-22c0 3-4 5-6 5h-8c-1-2-3-3-4-5h18zm-5 6c-1 6-4 7-9 8 1-2 1-5 0-8h9zm-74 8c-4 0-8-3-9-7 0-1 8-1 9-1-1 3-1 6 0 8zm4-15H12c-4-1-6-3-6-7 1 0 5 1 9 2 5 1 11 1 12 2v3z" fill="#005493" fill-rule="nonzero"/></svg>